<svg width="756" height="74" viewBox="0 0 756 74" fill="none" xmlns="http://www.w3.org/2000/svg">
<path d="M0.0928517 73V0.0999944H13.3229V30.61H28.1729V0.0999944H41.4929V73H28.1729V40.06H13.3229V73H0.0928517ZM60.2072 73.81C58.1672 73.81 56.4872 73.3 55.1672 72.28C53.8472 71.2 52.8872 69.79 52.2872 68.05C51.6872 66.25 51.3872 64.36 51.3872 62.38V20.98H63.6272V60.13C63.6272 61.69 63.8672 62.92 64.3472 63.82C64.8872 64.66 65.8472 65.08 67.2272 65.08C68.1272 65.08 69.0272 64.84 69.9272 64.36C70.8872 63.88 71.8172 63.31 72.7172 62.65V20.98H84.9572V73H72.7172V68.05C70.9772 69.73 69.0572 71.11 66.9572 72.19C64.8572 73.27 62.6072 73.81 60.2072 73.81ZM116.786 73.81C114.866 73.81 113.066 73.36 111.386 72.46C109.706 71.56 108.146 70.45 106.706 69.13V73H94.4663V0.0999944H106.706V24.94C108.206 23.5 109.826 22.36 111.566 21.52C113.366 20.62 115.286 20.17 117.326 20.17C119.666 20.17 121.586 20.71 123.086 21.79C124.586 22.87 125.756 24.31 126.596 26.11C127.436 27.85 128.006 29.74 128.306 31.78C128.666 33.76 128.846 35.68 128.846 37.54V55.18C128.846 58.6 128.426 61.72 127.586 64.54C126.806 67.36 125.516 69.61 123.716 71.29C121.976 72.97 119.666 73.81 116.786 73.81ZM112.106 65.26C113.426 65.26 114.386 64.84 114.986 64C115.646 63.1 116.066 61.93 116.246 60.49C116.486 58.99 116.606 57.37 116.606 55.63V37C116.606 35.38 116.486 33.94 116.246 32.68C116.006 31.36 115.556 30.31 114.896 29.53C114.296 28.75 113.336 28.36 112.016 28.36C111.056 28.36 110.126 28.6 109.226 29.08C108.326 29.5 107.486 29.98 106.706 30.52V63.37C107.486 63.91 108.326 64.36 109.226 64.72C110.186 65.08 111.146 65.26 112.106 65.26ZM179.942 73.99C174.542 73.99 170.342 73 167.342 71.02C164.342 69.04 162.272 66.22 161.132 62.56C159.992 58.9 159.422 54.52 159.422 49.42V0.0999944H172.382V50.95C172.382 53.23 172.532 55.39 172.832 57.43C173.132 59.41 173.822 61.03 174.902 62.29C176.042 63.49 177.722 64.09 179.942 64.09C182.282 64.09 183.962 63.49 184.982 62.29C186.062 61.03 186.752 59.41 187.052 57.43C187.412 55.39 187.592 53.23 187.592 50.95V0.0999944H200.462V49.42C200.462 54.52 199.892 58.9 198.752 62.56C197.612 66.22 195.542 69.04 192.542 71.02C189.602 73 185.402 73.99 179.942 73.99ZM210.218 73V0.0999944H222.458V41.95L235.868 20.98H249.188L236.138 41.86L248.918 73H236.048L226.598 47.35L222.458 53.11V73H210.218ZM254.256 73V20.98H266.496V28.99C268.296 25.93 270.096 23.74 271.896 22.42C273.696 21.04 275.676 20.35 277.836 20.35C278.196 20.35 278.496 20.38 278.736 20.44C279.036 20.44 279.366 20.47 279.726 20.53V33.22C279.006 32.92 278.196 32.68 277.296 32.5C276.456 32.26 275.586 32.14 274.686 32.14C273.066 32.14 271.596 32.53 270.276 33.31C268.956 34.09 267.696 35.38 266.496 37.18V73H254.256ZM295.618 73.81C293.278 73.81 291.268 73.21 289.588 72.01C287.908 70.75 286.618 69.19 285.718 67.33C284.818 65.41 284.368 63.43 284.368 61.39C284.368 58.15 284.968 55.42 286.168 53.2C287.368 50.98 288.958 49.12 290.938 47.62C292.918 46.12 295.168 44.83 297.688 43.75C300.208 42.61 302.758 41.59 305.338 40.69V36.19C305.338 34.69 305.218 33.43 304.978 32.41C304.798 31.39 304.408 30.61 303.808 30.07C303.268 29.53 302.398 29.26 301.198 29.26C300.178 29.26 299.338 29.5 298.678 29.98C298.078 30.46 297.628 31.15 297.328 32.05C297.088 32.89 296.938 33.88 296.878 35.02L296.698 38.17L285.088 37.72C285.268 31.72 286.738 27.31 289.498 24.49C292.318 21.61 296.578 20.17 302.278 20.17C307.498 20.17 311.278 21.61 313.618 24.49C316.018 27.37 317.218 31.27 317.218 36.19V60.22C317.218 62.14 317.248 63.88 317.308 65.44C317.428 67 317.548 68.41 317.668 69.67C317.848 70.93 317.998 72.04 318.118 73H307.138C306.958 71.8 306.718 70.45 306.418 68.95C306.178 67.39 305.998 66.25 305.878 65.53C305.278 67.63 304.138 69.55 302.458 71.29C300.778 72.97 298.498 73.81 295.618 73.81ZM300.118 64.72C300.898 64.72 301.618 64.54 302.278 64.18C302.998 63.76 303.628 63.28 304.168 62.74C304.708 62.2 305.098 61.72 305.338 61.3V46.81C304.018 47.59 302.758 48.37 301.558 49.15C300.418 49.93 299.398 50.8 298.498 51.76C297.658 52.66 296.998 53.65 296.518 54.73C296.098 55.81 295.888 57.07 295.888 58.51C295.888 60.43 296.248 61.96 296.968 63.1C297.748 64.18 298.798 64.72 300.118 64.72ZM326.592 73V20.98H338.832V73H326.592ZM326.592 12.7V2.53H338.832V12.7H326.592ZM348.556 73V20.98H360.796V26.2C362.656 24.4 364.606 22.96 366.646 21.88C368.746 20.74 370.996 20.17 373.396 20.17C375.556 20.17 377.266 20.71 378.526 21.79C379.786 22.81 380.716 24.19 381.316 25.93C381.916 27.67 382.216 29.56 382.216 31.6V73H369.976V34.03C369.976 32.47 369.736 31.27 369.256 30.43C368.776 29.59 367.846 29.17 366.466 29.17C365.626 29.17 364.696 29.41 363.676 29.89C362.716 30.37 361.756 30.97 360.796 31.69V73H348.556ZM391.543 73V20.98H403.783V73H391.543ZM391.543 12.7V2.53H403.783V12.7H391.543ZM423.587 73.81C421.247 73.81 419.237 73.21 417.557 72.01C415.877 70.75 414.587 69.19 413.687 67.33C412.787 65.41 412.337 63.43 412.337 61.39C412.337 58.15 412.937 55.42 414.137 53.2C415.337 50.98 416.927 49.12 418.907 47.62C420.887 46.12 423.137 44.83 425.657 43.75C428.177 42.61 430.727 41.59 433.307 40.69V36.19C433.307 34.69 433.187 33.43 432.947 32.41C432.767 31.39 432.377 30.61 431.777 30.07C431.237 29.53 430.367 29.26 429.167 29.26C428.147 29.26 427.307 29.5 426.647 29.98C426.047 30.46 425.597 31.15 425.297 32.05C425.057 32.89 424.907 33.88 424.847 35.02L424.667 38.17L413.057 37.72C413.237 31.72 414.707 27.31 417.467 24.49C420.287 21.61 424.547 20.17 430.247 20.17C435.467 20.17 439.247 21.61 441.587 24.49C443.987 27.37 445.187 31.27 445.187 36.19V60.22C445.187 62.14 445.217 63.88 445.277 65.44C445.397 67 445.517 68.41 445.637 69.67C445.817 70.93 445.967 72.04 446.087 73H435.107C434.927 71.8 434.687 70.45 434.387 68.95C434.147 67.39 433.967 66.25 433.847 65.53C433.247 67.63 432.107 69.55 430.427 71.29C428.747 72.97 426.467 73.81 423.587 73.81ZM428.087 64.72C428.867 64.72 429.587 64.54 430.247 64.18C430.967 63.76 431.597 63.28 432.137 62.74C432.677 62.2 433.067 61.72 433.307 61.3V46.81C431.987 47.59 430.727 48.37 429.527 49.15C428.387 49.93 427.367 50.8 426.467 51.76C425.627 52.66 424.967 53.65 424.487 54.73C424.067 55.81 423.857 57.07 423.857 58.51C423.857 60.43 424.217 61.96 424.937 63.1C425.717 64.18 426.767 64.72 428.087 64.72ZM454.201 73V20.98H466.441V26.2C468.301 24.4 470.251 22.96 472.291 21.88C474.391 20.74 476.641 20.17 479.041 20.17C481.201 20.17 482.911 20.71 484.171 21.79C485.431 22.81 486.361 24.19 486.961 25.93C487.561 27.67 487.861 29.56 487.861 31.6V73H475.621V34.03C475.621 32.47 475.381 31.27 474.901 30.43C474.421 29.59 473.491 29.17 472.111 29.17C471.271 29.17 470.341 29.41 469.321 29.89C468.361 30.37 467.401 30.97 466.441 31.69V73H454.201ZM519.522 73V0.0999944H537.432C540.672 0.0999944 543.582 0.399996 546.162 0.999999C548.802 1.6 551.052 2.62 552.912 4.06C554.832 5.44 556.302 7.33 557.322 9.73C558.342 12.13 558.852 15.16 558.852 18.82C558.852 21.76 558.432 24.28 557.592 26.38C556.812 28.48 555.642 30.16 554.082 31.42C552.522 32.62 550.572 33.43 548.232 33.85C551.112 34.33 553.482 35.35 555.342 36.91C557.262 38.41 558.672 40.39 559.572 42.85C560.532 45.31 561.012 48.28 561.012 51.76C561.012 55.24 560.562 58.33 559.662 61.03C558.822 63.67 557.532 65.89 555.792 67.69C554.112 69.43 551.982 70.75 549.402 71.65C546.882 72.55 543.912 73 540.492 73H519.522ZM532.842 63.64H537.882C541.902 63.64 544.632 62.68 546.072 60.76C547.512 58.78 548.232 55.75 548.232 51.67C548.232 48.73 547.872 46.36 547.152 44.56C546.492 42.7 545.352 41.32 543.732 40.42C542.172 39.52 540.072 39.07 537.432 39.07H532.842V63.64ZM532.842 29.89H537.342C539.982 29.89 542.022 29.5 543.462 28.72C544.902 27.94 545.892 26.74 546.432 25.12C547.032 23.5 547.332 21.46 547.332 19C547.332 16.42 546.882 14.44 545.982 13.06C545.142 11.62 543.852 10.66 542.112 10.18C540.372 9.64 538.152 9.37 535.452 9.37H532.842V29.89ZM569.08 73V20.98H581.32V28.99C583.12 25.93 584.92 23.74 586.72 22.42C588.52 21.04 590.5 20.35 592.66 20.35C593.02 20.35 593.32 20.38 593.56 20.44C593.86 20.44 594.19 20.47 594.55 20.53V33.22C593.83 32.92 593.02 32.68 592.12 32.5C591.28 32.26 590.41 32.14 589.51 32.14C587.89 32.14 586.42 32.53 585.1 33.31C583.78 34.09 582.52 35.38 581.32 37.18V73H569.08ZM610.443 73.81C608.103 73.81 606.093 73.21 604.413 72.01C602.733 70.75 601.443 69.19 600.543 67.33C599.643 65.41 599.193 63.43 599.193 61.39C599.193 58.15 599.793 55.42 600.993 53.2C602.193 50.98 603.783 49.12 605.763 47.62C607.743 46.12 609.993 44.83 612.513 43.75C615.033 42.61 617.583 41.59 620.163 40.69V36.19C620.163 34.69 620.043 33.43 619.803 32.41C619.623 31.39 619.233 30.61 618.633 30.07C618.093 29.53 617.223 29.26 616.023 29.26C615.003 29.26 614.163 29.5 613.503 29.98C612.903 30.46 612.453 31.15 612.153 32.05C611.913 32.89 611.763 33.88 611.703 35.02L611.523 38.17L599.913 37.72C600.093 31.72 601.563 27.31 604.323 24.49C607.143 21.61 611.403 20.17 617.103 20.17C622.323 20.17 626.103 21.61 628.443 24.49C630.843 27.37 632.043 31.27 632.043 36.19V60.22C632.043 62.14 632.073 63.88 632.133 65.44C632.253 67 632.373 68.41 632.493 69.67C632.673 70.93 632.823 72.04 632.943 73H621.963C621.783 71.8 621.543 70.45 621.243 68.95C621.003 67.39 620.823 66.25 620.703 65.53C620.103 67.63 618.963 69.55 617.283 71.29C615.603 72.97 613.323 73.81 610.443 73.81ZM614.943 64.72C615.723 64.72 616.443 64.54 617.103 64.18C617.823 63.76 618.453 63.28 618.993 62.74C619.533 62.2 619.923 61.72 620.163 61.3V46.81C618.843 47.59 617.583 48.37 616.383 49.15C615.243 49.93 614.223 50.8 613.323 51.76C612.483 52.66 611.823 53.65 611.343 54.73C610.923 55.81 610.713 57.07 610.713 58.51C610.713 60.43 611.073 61.96 611.793 63.1C612.573 64.18 613.623 64.72 614.943 64.72ZM641.056 73V20.98H653.296V26.2C655.156 24.4 657.106 22.96 659.146 21.88C661.246 20.74 663.496 20.17 665.896 20.17C668.056 20.17 669.766 20.71 671.026 21.79C672.286 22.81 673.216 24.19 673.816 25.93C674.416 27.67 674.716 29.56 674.716 31.6V73H662.476V34.03C662.476 32.47 662.236 31.27 661.756 30.43C661.276 29.59 660.346 29.17 658.966 29.17C658.126 29.17 657.196 29.41 656.176 29.89C655.216 30.37 654.256 30.97 653.296 31.69V73H641.056ZM695.383 73.81C691.243 73.81 688.093 72.34 685.933 69.4C683.833 66.46 682.783 61.75 682.783 55.27V39.34C682.783 35.74 683.173 32.5 683.953 29.62C684.793 26.74 686.113 24.46 687.913 22.78C689.713 21.04 692.143 20.17 695.203 20.17C697.063 20.17 698.773 20.56 700.333 21.34C701.953 22.06 703.423 23.02 704.743 24.22V0.0999944H716.983V73H704.743V69.31C703.363 70.69 701.893 71.8 700.333 72.64C698.773 73.42 697.123 73.81 695.383 73.81ZM699.883 65.35C700.543 65.35 701.293 65.2 702.133 64.9C702.973 64.6 703.843 64.18 704.743 63.64V30.25C704.023 29.77 703.243 29.38 702.403 29.08C701.563 28.72 700.693 28.54 699.793 28.54C698.053 28.54 696.823 29.35 696.103 30.97C695.443 32.53 695.113 34.45 695.113 36.73V56.17C695.113 57.91 695.233 59.47 695.473 60.85C695.713 62.23 696.163 63.34 696.823 64.18C697.543 64.96 698.563 65.35 699.883 65.35ZM740.352 73.81C735.972 73.81 732.372 72.64 729.552 70.3C726.732 67.96 724.722 64.54 723.522 60.04L732.612 56.53C733.332 59.35 734.292 61.51 735.492 63.01C736.692 64.51 738.252 65.26 740.172 65.26C741.612 65.26 742.692 64.9 743.412 64.18C744.132 63.46 744.492 62.47 744.492 61.21C744.492 59.77 744.042 58.48 743.142 57.34C742.302 56.14 740.832 54.67 738.732 52.93L732.432 47.62C730.152 45.64 728.292 43.63 726.852 41.59C725.472 39.49 724.782 36.88 724.782 33.76C724.782 30.94 725.412 28.54 726.672 26.56C727.992 24.52 729.762 22.96 731.982 21.88C734.262 20.74 736.782 20.17 739.542 20.17C743.742 20.17 747.102 21.43 749.622 23.95C752.202 26.41 753.852 29.65 754.572 33.67L746.562 37.09C746.262 35.65 745.812 34.33 745.212 33.13C744.672 31.87 743.952 30.85 743.052 30.07C742.152 29.29 741.102 28.9 739.902 28.9C738.642 28.9 737.622 29.29 736.842 30.07C736.122 30.85 735.762 31.84 735.762 33.04C735.762 34.06 736.182 35.11 737.022 36.19C737.922 37.27 739.182 38.5 740.802 39.88L747.192 45.64C748.572 46.84 749.892 48.13 751.152 49.51C752.412 50.89 753.462 52.45 754.302 54.19C755.142 55.87 755.562 57.82 755.562 60.04C755.562 63.04 754.872 65.56 753.492 67.6C752.172 69.64 750.342 71.2 748.002 72.28C745.722 73.3 743.172 73.81 740.352 73.81Z" fill="black"/>
</svg>
